<svg xmlns="http://www.w3.org/2000/svg">
  <symbol id="chevron-down" viewBox="0 0 24 24"><path d="m6 9 6 6 6-6" fill="none" stroke="currentColor" stroke-width="2" stroke-linecap="round" stroke-linejoin="round" /></symbol>
  <symbol id="close" viewBox="0 0 24 24"><path d="m6 6 12 12M18 6 6 18" fill="none" stroke="currentColor" stroke-width="2" stroke-linecap="round" /></symbol>
  <symbol id="project-tool" viewBox="0 0 24 24"><path d="M14.7 6.3a1 1 0 0 0 0 1.4l1.6 1.6a1 1 0 0 0 1.4 0l3.77-3.77a6 6 0 0 1-7.94 7.94l-6.91 6.91a2.12 2.12 0 0 1-3-3l6.91-6.91a6 6 0 0 1 7.94-7.94L14.7 6.3Z" fill="none" stroke="currentColor" stroke-width="1.8" stroke-linecap="round" stroke-linejoin="round" /></symbol>
  <symbol id="project-2d" viewBox="0 0 24 24"><rect x="2" y="6" width="20" height="12" rx="2" fill="none" stroke="currentColor" stroke-width="1.8" /><path d="M6 12h4m-2-2v4m7-3h.01M18 13h.01" fill="none" stroke="currentColor" stroke-width="1.8" stroke-linecap="round" /></symbol>
  <symbol id="project-3d" viewBox="0 0 24 24"><path d="M21 16V8a2 2 0 0 0-1-1.73l-7-4a2 2 0 0 0-2 0l-7 4A2 2 0 0 0 3 8v8a2 2 0 0 0 1 1.73l7 4a2 2 0 0 0 2 0l7-4A2 2 0 0 0 21 16ZM3.27 6.96 12 12.01l8.73-5.05M12 22.08V12" fill="none" stroke="currentColor" stroke-width="1.8" stroke-linecap="round" stroke-linejoin="round" /></symbol>
  <symbol id="calendar" viewBox="0 0 24 24"><rect x="3" y="5" width="18" height="16" rx="2" fill="none" stroke="currentColor" stroke-width="1.5" /><path d="M8 3v4m8-4v4M3 10h18" fill="none" stroke="currentColor" stroke-width="1.5" /></symbol>
  <symbol id="plus" viewBox="0 0 24 24"><path d="M12 5v14M5 12h14" fill="none" stroke="currentColor" stroke-width="1.8" /></symbol>
  <symbol id="upload-image" viewBox="0 0 24 24"><path d="m4 16 4.586-4.586a2 2 0 0 1 2.828 0L16 16m-2-2 1.586-1.586a2 2 0 0 1 2.828 0L20 14m-6-6h.01M6 20h12a2 2 0 0 0 2-2V6a2 2 0 0 0-2-2H6a2 2 0 0 0-2 2v12a2 2 0 0 0 2 2Z" fill="none" stroke="currentColor" stroke-width="1.8" stroke-linecap="round" stroke-linejoin="round" /></symbol>
  <symbol id="send" viewBox="0 0 24 24"><path d="M3.4 20.6 20.8 12 3.4 3.4l2.8 7.2L16 12l-9.8 1.4-2.8 7.2Z" fill="currentColor" /></symbol>
  <symbol id="stop" viewBox="0 0 24 24"><rect x="6" y="6" width="12" height="12" rx="1.5" fill="currentColor" /></symbol>
  <symbol id="link" viewBox="0 0 24 24"><path d="M17 7h-4v2h4c1.65 0 3 1.35 3 3s-1.35 3-3 3h-4v2h4c2.76 0 5-2.24 5-5s-2.24-5-5-5Zm-6 0H7c-2.76 0-5 2.24-5 5s2.24 5 5 5h4v-2H7c-1.65 0-3-1.35-3-3s1.35-3 3-3h4V7Zm-3 4h8v2H8v-2Z" fill="currentColor" /></symbol>
  <symbol id="refresh" viewBox="0 0 24 24"><path d="M12 4V1L8 5l4 4V6c3.31 0 6 2.69 6 6 0 1.01-.25 1.97-.7 2.8l1.46 1.46A7.93 7.93 0 0 0 20 12c0-4.42-3.58-8-8-8Zm0 14c-3.31 0-6-2.69-6-6 0-1.01.25-1.97.7-2.8L5.24 9.74A7.93 7.93 0 0 0 4 12c0 4.42 3.58 8 8 8v3l4-4-4-4v3Z" fill="currentColor" /></symbol>
  <symbol id="build-wireframe" viewBox="0 0 1024 1024"><path d="M511.069091 0 46.545455 245.946182v494.638545l464.523636 245.946182 464.616727-245.946182V245.946182L511.069091 0Zm358.027636 254.138182-174.917818 92.904727-183.063273-103.796364-199.493818 114.688-188.555636-87.412363L511.069091 65.629091l358.027636 188.509091ZM103.889454 319.674181l188.555636 87.458909v210.385455l188.555637 106.589091v177.664l-377.111273-196.794182V319.674181ZM535.64509 907.310545v-177.617455l194.048-112.034909V390.795636l188.509091-101.143272v412.672L535.64509 907.310545Z" /></symbol>
  <symbol id="build-face" viewBox="0 0 1024 1024"><path d="m347.136 434.501818 133.911273 62.836364v166.725818l-133.911273-76.520727V434.501818Zm188.555636 60.136727 139.357091-73.82109v166.725818l-139.357091 79.220363V494.638545Zm-30.068363-46.452363-133.864728-62.836364 139.310546-79.313454 128.465454 73.774545-133.911272 68.375273Z" /></symbol>
</svg>
